<mxfile host="Electron" modified="2024-04-18T14:00:41.985Z" agent="Mozilla/5.0 (Windows NT 10.0; Win64; x64) AppleWebKit/537.36 (KHTML, like Gecko) draw.io/23.1.5 Chrome/120.0.6099.109 Electron/28.1.0 Safari/537.36" etag="_gsYxKLBnxikoGbBpJNp" version="23.1.5" type="device">
  <diagram name="Page-1" id="pIJavBY0yzTweW4xneVl">
    <mxGraphModel dx="30" dy="572" grid="1" gridSize="10" guides="1" tooltips="1" connect="1" arrows="1" fold="1" page="1" pageScale="1" pageWidth="850" pageHeight="1100" math="0" shadow="0">
      <root>
        <mxCell id="0" />
        <mxCell id="1" parent="0" />
        <mxCell id="FFGb-5vFVpJmypS58oWW-3" style="edgeStyle=orthogonalEdgeStyle;rounded=0;orthogonalLoop=1;jettySize=auto;html=1;exitX=0.5;exitY=1;exitDx=0;exitDy=0;exitPerimeter=0;entryX=0.5;entryY=0;entryDx=0;entryDy=0;" parent="1" source="dBdyuKx9wnMH7rO0jvBw-1" target="FFGb-5vFVpJmypS58oWW-2" edge="1">
          <mxGeometry relative="1" as="geometry" />
        </mxCell>
        <mxCell id="dBdyuKx9wnMH7rO0jvBw-1" value="calculateAverage(Siswa *head)" style="strokeWidth=2;html=1;shape=mxgraph.flowchart.start_1;whiteSpace=wrap;" parent="1" vertex="1">
          <mxGeometry x="980" y="20" width="375" height="90" as="geometry" />
        </mxCell>
        <mxCell id="FFGb-5vFVpJmypS58oWW-5" style="edgeStyle=orthogonalEdgeStyle;rounded=0;orthogonalLoop=1;jettySize=auto;html=1;exitX=0.5;exitY=1;exitDx=0;exitDy=0;entryX=0.5;entryY=0;entryDx=0;entryDy=0;" parent="1" source="FFGb-5vFVpJmypS58oWW-2" target="FFGb-5vFVpJmypS58oWW-4" edge="1">
          <mxGeometry relative="1" as="geometry" />
        </mxCell>
        <mxCell id="FFGb-5vFVpJmypS58oWW-2" value="Inisiasi variabel lokal untuk menghitung rata-rata dan memberikan nilai nol sebagai kondisi awalnya:&amp;nbsp;total_mat = 0, total_fis = 0, total_kim = 0, total_bio = 0, total_sosio = 0, total_akuntansi = 0, total_mahasiswa = 0" style="rounded=1;whiteSpace=wrap;html=1;absoluteArcSize=1;arcSize=14;strokeWidth=2;" parent="1" vertex="1">
          <mxGeometry x="1007" y="150" width="320" height="90" as="geometry" />
        </mxCell>
        <mxCell id="FFGb-5vFVpJmypS58oWW-4" value="Inisiasi struktur data &lt;i&gt;Siswa &lt;/i&gt;untuk menyimpan elemen-elemen linked-list, *current = head" style="rounded=1;whiteSpace=wrap;html=1;absoluteArcSize=1;arcSize=14;strokeWidth=2;" parent="1" vertex="1">
          <mxGeometry x="1007.5" y="280" width="320" height="50" as="geometry" />
        </mxCell>
        <mxCell id="z8smT4CfmWR9nXVI0RVa-2" style="edgeStyle=orthogonalEdgeStyle;rounded=0;orthogonalLoop=1;jettySize=auto;html=1;exitX=0.5;exitY=1;exitDx=0;exitDy=0;exitPerimeter=0;entryX=0.5;entryY=0;entryDx=0;entryDy=0;" parent="1" source="hjTBZ4ytwVkGc0QuVm1j-1" target="z8smT4CfmWR9nXVI0RVa-1" edge="1">
          <mxGeometry relative="1" as="geometry" />
        </mxCell>
        <mxCell id="z8smT4CfmWR9nXVI0RVa-7" value="Ya" style="edgeLabel;html=1;align=center;verticalAlign=middle;resizable=0;points=[];" parent="z8smT4CfmWR9nXVI0RVa-2" vertex="1" connectable="0">
          <mxGeometry x="-0.186" y="2" relative="1" as="geometry">
            <mxPoint as="offset" />
          </mxGeometry>
        </mxCell>
        <mxCell id="z8smT4CfmWR9nXVI0RVa-9" style="edgeStyle=orthogonalEdgeStyle;rounded=0;orthogonalLoop=1;jettySize=auto;html=1;exitX=0;exitY=0.5;exitDx=0;exitDy=0;exitPerimeter=0;entryX=0.5;entryY=0;entryDx=0;entryDy=0;" parent="1" source="hjTBZ4ytwVkGc0QuVm1j-1" target="z8smT4CfmWR9nXVI0RVa-8" edge="1">
          <mxGeometry relative="1" as="geometry">
            <mxPoint x="1170" y="750" as="targetPoint" />
            <Array as="points">
              <mxPoint x="980" y="445" />
              <mxPoint x="980" y="730" />
              <mxPoint x="1167" y="730" />
            </Array>
          </mxGeometry>
        </mxCell>
        <mxCell id="z8smT4CfmWR9nXVI0RVa-10" value="Tidak" style="edgeLabel;html=1;align=center;verticalAlign=middle;resizable=0;points=[];" parent="z8smT4CfmWR9nXVI0RVa-9" vertex="1" connectable="0">
          <mxGeometry x="-0.0819" relative="1" as="geometry">
            <mxPoint as="offset" />
          </mxGeometry>
        </mxCell>
        <mxCell id="hjTBZ4ytwVkGc0QuVm1j-1" value="Apakah struktur data &lt;br&gt;elemen saat ini ada?" style="strokeWidth=2;html=1;shape=mxgraph.flowchart.decision;whiteSpace=wrap;" parent="1" vertex="1">
          <mxGeometry x="1072.5" y="360" width="190" height="170" as="geometry" />
        </mxCell>
        <mxCell id="hjTBZ4ytwVkGc0QuVm1j-2" style="edgeStyle=orthogonalEdgeStyle;rounded=0;orthogonalLoop=1;jettySize=auto;html=1;exitX=0.5;exitY=1;exitDx=0;exitDy=0;entryX=0.5;entryY=0;entryDx=0;entryDy=0;entryPerimeter=0;" parent="1" source="FFGb-5vFVpJmypS58oWW-4" target="hjTBZ4ytwVkGc0QuVm1j-1" edge="1">
          <mxGeometry relative="1" as="geometry" />
        </mxCell>
        <mxCell id="z8smT4CfmWR9nXVI0RVa-5" style="edgeStyle=orthogonalEdgeStyle;rounded=0;orthogonalLoop=1;jettySize=auto;html=1;exitX=0.5;exitY=1;exitDx=0;exitDy=0;entryX=0.5;entryY=0;entryDx=0;entryDy=0;" parent="1" source="z8smT4CfmWR9nXVI0RVa-1" target="z8smT4CfmWR9nXVI0RVa-3" edge="1">
          <mxGeometry relative="1" as="geometry" />
        </mxCell>
        <mxCell id="z8smT4CfmWR9nXVI0RVa-1" value="Jumlahkan tiap nilai mata pelajaran pada elemen linked-list dengan masing-masing variabel lokal&amp;nbsp;&amp;nbsp;" style="rounded=1;whiteSpace=wrap;html=1;absoluteArcSize=1;arcSize=14;strokeWidth=2;" parent="1" vertex="1">
          <mxGeometry x="1007.5" y="560" width="320" height="50" as="geometry" />
        </mxCell>
        <mxCell id="z8smT4CfmWR9nXVI0RVa-6" style="edgeStyle=orthogonalEdgeStyle;rounded=0;orthogonalLoop=1;jettySize=auto;html=1;exitX=0.5;exitY=1;exitDx=0;exitDy=0;" parent="1" source="z8smT4CfmWR9nXVI0RVa-3" edge="1">
          <mxGeometry relative="1" as="geometry">
            <mxPoint x="1170" y="350" as="targetPoint" />
            <Array as="points">
              <mxPoint x="1168" y="710" />
              <mxPoint x="1348" y="710" />
              <mxPoint x="1348" y="350" />
            </Array>
          </mxGeometry>
        </mxCell>
        <mxCell id="z8smT4CfmWR9nXVI0RVa-3" value="total_mahasiswa++ &amp;amp; akses elemen linked list selanjutnya" style="rounded=1;whiteSpace=wrap;html=1;absoluteArcSize=1;arcSize=14;strokeWidth=2;" parent="1" vertex="1">
          <mxGeometry x="1007.5" y="640" width="320" height="50" as="geometry" />
        </mxCell>
        <mxCell id="z8smT4CfmWR9nXVI0RVa-8" value="Tampilkan rata-rata semua mata pelajaran dari seluruh mahasiswa" style="rounded=1;whiteSpace=wrap;html=1;absoluteArcSize=1;arcSize=14;strokeWidth=2;" parent="1" vertex="1">
          <mxGeometry x="1007" y="760" width="320" height="50" as="geometry" />
        </mxCell>
        <mxCell id="z8smT4CfmWR9nXVI0RVa-11" value="return" style="strokeWidth=2;html=1;shape=mxgraph.flowchart.start_1;whiteSpace=wrap;" parent="1" vertex="1">
          <mxGeometry x="1105.25" y="850" width="124.5" height="50" as="geometry" />
        </mxCell>
        <mxCell id="z8smT4CfmWR9nXVI0RVa-12" style="edgeStyle=orthogonalEdgeStyle;rounded=0;orthogonalLoop=1;jettySize=auto;html=1;exitX=0.5;exitY=1;exitDx=0;exitDy=0;entryX=0.5;entryY=0;entryDx=0;entryDy=0;entryPerimeter=0;" parent="1" source="z8smT4CfmWR9nXVI0RVa-8" target="z8smT4CfmWR9nXVI0RVa-11" edge="1">
          <mxGeometry relative="1" as="geometry" />
        </mxCell>
      </root>
    </mxGraphModel>
  </diagram>
</mxfile>
